<svg width="181" height="68" viewBox="0 0 181 68" fill="none" xmlns="http://www.w3.org/2000/svg">
<path d="M7.09764 29.7684H26.4911L29.1552 36.1137H33.5847L19.6253 3.2771H13.6828L0 36.1137H4.48636L7.09764 29.7684ZM16.7089 6.27975L24.6282 25.3075H8.89544L16.7089 6.27975Z" fill='#59534f'/>
<path d="M61.7922 40.1487V58.1728H33.5847V40.1487H29.1593V58.1728H4.42535V40.1487H0V58.1728V62.4084H4.42535H29.1593H33.5847H61.7922H66.2135H66.2175V40.1487H61.7922Z" fill='#59534f'/>
<path d="M35.9153 27.0648C37.6521 27.9824 37.9327 27.9824 44.3836 28.1053H61.9061V36.1137H66.1118V3.2771H61.9061L55.207 3.28529L43.7695 3.2771C38.9455 3.2771 37.6033 3.46144 35.9193 4.25614C32.8362 5.72264 31.376 9.393 31.376 15.8735C31.376 21.9894 32.7793 25.414 35.9193 27.0648H35.9153ZM37.8758 7.9265C38.9984 7.37758 39.4458 7.31614 43.8752 7.25469H48.3982L61.902 7.27108V24.0663L50.5336 24.1318H45.2215C36.924 24.1318 35.5777 23.0299 35.5777 16.1193C35.5777 10.7981 36.139 8.78264 37.8758 7.9265Z" fill='#59534f'/>
<path d="M73.4238 16.7952H75.1825L76.406 13.1756H81.4911L82.7146 16.7952H84.4542L79.7323 3.31808H78.1647L73.4238 16.7952ZM76.903 11.6161L78.9485 5.57069L80.994 11.6161H76.903ZM85.4418 14.3116C85.8241 15.7748 87.0667 16.9492 89.0357 16.9492C90.8901 16.9492 92.1135 15.8325 92.1135 14.0035C92.1135 12.7328 91.3298 11.8087 89.7622 11.2311C88.1564 10.6342 87.6211 10.2492 87.6211 9.53681C87.6211 8.82444 88.1755 8.36237 88.8828 8.36237C89.6284 8.36237 90.221 8.70893 90.6607 9.38278L91.693 8.45864C91.0621 7.43823 90.1445 6.93765 88.9019 6.93765C87.277 6.93765 86.0917 7.99656 86.0917 9.53681C86.0917 10.9423 86.952 11.7316 88.4813 12.29C89.8578 12.8098 90.5651 13.2334 90.5651 14.0613C90.5651 14.9854 89.9725 15.5245 89.0357 15.5245C87.8314 15.5245 87.1432 14.8314 86.7608 13.5992L85.4418 14.3116ZM93.5441 14.3116C93.9264 15.7748 95.169 16.9492 97.138 16.9492C98.9924 16.9492 100.216 15.8325 100.216 14.0035C100.216 12.7328 99.432 11.8087 97.8645 11.2311C96.2586 10.6342 95.7234 10.2492 95.7234 9.53681C95.7234 8.82444 96.2778 8.36237 96.9851 8.36237C97.7306 8.36237 98.3233 8.70893 98.763 9.38278L99.7953 8.45864C99.1644 7.43823 98.2468 6.93765 97.0042 6.93765C95.3793 6.93765 94.194 7.99656 94.194 9.53681C94.194 10.9423 95.0543 11.7316 96.5836 12.29C97.96 12.8098 98.6674 13.2334 98.6674 14.0613C98.6674 14.9854 98.0748 15.5245 97.138 15.5245C95.9337 15.5245 95.2455 14.8314 94.8631 13.5992L93.5441 14.3116ZM101.685 11.9434C101.647 14.5811 103.54 17.007 106.331 16.9492C109.122 17.007 110.995 14.5811 110.957 11.9434C110.995 9.30577 109.122 6.87989 106.331 6.93765C103.54 6.87989 101.647 9.30577 101.685 11.9434ZM109.313 11.9434C109.313 13.8302 108.223 15.5245 106.331 15.5245C104.438 15.5245 103.329 13.8302 103.329 11.9434C103.329 10.0566 104.438 8.36237 106.331 8.36237C108.223 8.36237 109.313 10.0566 109.313 11.9434ZM112.719 11.9434C112.719 14.6196 114.286 16.9492 117.135 16.9492C119.104 16.9492 120.48 16.0251 121.168 14.2345L119.754 13.6762C119.218 14.9084 118.415 15.5245 117.135 15.5245C115.319 15.5245 114.363 14.0228 114.363 11.9434C114.363 9.84485 115.319 8.36237 117.135 8.36237C118.377 8.36237 119.257 8.97847 119.754 10.2107L121.168 9.65232C120.499 7.84254 119.142 6.93765 117.135 6.93765C114.286 6.93765 112.719 9.26726 112.719 11.9434ZM123.373 16.7952H124.96V7.09167H123.373V16.7952ZM123.01 4.29999C123.01 4.93534 123.526 5.45517 124.157 5.45517C124.826 5.45517 125.323 4.97384 125.323 4.29999C125.323 3.62613 124.826 3.14481 124.157 3.14481C123.526 3.14481 123.01 3.62613 123.01 4.29999ZM127.206 14.0035C127.206 15.9481 128.449 16.9492 130.189 16.9492C131.527 16.9492 132.521 16.4294 133.19 15.3897L133.477 16.7952H134.719V10.5765C134.719 8.26611 133.266 6.93765 131.106 6.93765C130.208 6.93765 129.424 7.18794 128.755 7.66926C128.105 8.15059 127.723 8.80519 127.589 9.61382L129.003 9.94112C129.347 8.8822 130.055 8.36237 131.106 8.36237C132.33 8.36237 133.152 8.99772 133.152 10.4032V10.8268H131.469C128.812 10.8268 127.206 11.9434 127.206 14.0035ZM133.152 12.5018C133.152 14.5811 131.756 15.5245 130.475 15.5245C129.462 15.5245 128.85 14.9662 128.85 13.9843C128.85 12.8291 129.749 12.1937 131.527 12.1937H133.152V12.5018ZM136.591 16.7952H143.511V15.3705H138.655L143.282 7.84254V7.09167H136.839V8.5164H141.255L136.591 16.1021V16.7952ZM145.701 16.7952H147.287V7.09167H145.701V16.7952ZM145.337 4.29999C145.337 4.93534 145.853 5.45517 146.484 5.45517C147.153 5.45517 147.65 4.97384 147.65 4.29999C147.65 3.62613 147.153 3.14481 146.484 3.14481C145.853 3.14481 145.337 3.62613 145.337 4.29999ZM149.589 11.9434C149.551 14.5811 151.444 17.007 154.235 16.9492C157.026 17.007 158.899 14.5811 158.861 11.9434C158.899 9.30577 157.026 6.87989 154.235 6.93765C151.444 6.87989 149.551 9.30577 149.589 11.9434ZM157.217 11.9434C157.217 13.8302 156.127 15.5245 154.235 15.5245C152.342 15.5245 151.233 13.8302 151.233 11.9434C151.233 10.0566 152.342 8.36237 154.235 8.36237C156.127 8.36237 157.217 10.0566 157.217 11.9434ZM161.177 16.7952H162.764V12.6558C162.764 10.0181 164.006 8.36237 165.574 8.36237C166.74 8.36237 167.352 9.05548 167.352 10.3839V16.7952H168.919V10.0374C168.919 8.05432 167.772 6.93765 165.956 6.93765C164.656 6.93765 163.452 7.72702 162.764 8.95922V7.09167H161.177V16.7952ZM179.925 11.5199C179.925 8.97847 178.281 6.93765 175.624 6.93765C172.89 6.93765 171.227 9.19025 171.227 11.9434C171.227 14.6389 172.89 16.9492 175.624 16.9492C177.593 16.9492 178.835 16.1213 179.753 14.2153L178.415 13.6377C177.746 14.9662 176.981 15.5245 175.662 15.5245C173.961 15.5245 172.909 14.1768 172.833 12.1937H179.925V11.5199ZM172.928 10.8268C173.253 9.22876 174.305 8.36237 175.624 8.36237C177.153 8.36237 178.09 9.30577 178.319 10.8268H172.928ZM74.8767 39.3253H76.5398V33.5302H79.5794C82.1028 33.5302 83.5557 32.0669 83.5557 29.6796C83.5557 27.3114 82.1028 25.8482 79.5794 25.8482H74.8767V39.3253ZM76.5398 31.9707V27.4077H79.5603C81.1087 27.4077 81.8352 28.2741 81.8352 29.6796C81.8352 31.1235 81.1087 31.9707 79.5603 31.9707H76.5398ZM85.419 39.3253H87.0057V35.6672C87.0057 32.5675 88.0953 30.9117 89.6247 30.9117C90.0644 30.9117 90.4658 31.0273 90.8673 31.239L91.1923 29.7566C90.7144 29.564 90.2556 29.4678 89.835 29.4678C88.6115 29.4678 87.6174 30.1224 87.0057 31.2968V29.6218H85.419V39.3253ZM91.8284 34.4735C91.7902 37.1112 93.6828 39.5371 96.4738 39.4793C99.2649 39.5371 101.138 37.1112 101.1 34.4735C101.138 31.8359 99.2649 29.41 96.4738 29.4678C93.6828 29.41 91.7902 31.8359 91.8284 34.4735ZM99.456 34.4735C99.456 36.3603 98.3664 38.0546 96.4738 38.0546C94.5812 38.0546 93.4725 36.3603 93.4725 34.4735C93.4725 32.5868 94.5812 30.8925 96.4738 30.8925C98.3664 30.8925 99.456 32.5868 99.456 34.4735ZM103.416 43.2529H105.002V38.69V38.1124C105.557 38.9402 106.723 39.4793 107.813 39.4793C110.584 39.4793 112.133 37.3615 112.133 34.4735C112.133 31.5856 110.584 29.4678 107.813 29.4678C106.589 29.4678 105.461 30.1224 105.002 30.8732V30.2956V29.6218H103.416V43.2529ZM110.489 34.4735C110.489 36.6106 109.418 38.0546 107.66 38.0546C105.92 38.0546 104.849 36.6106 104.849 34.4735C104.849 32.3365 105.901 30.8925 107.66 30.8925C109.418 30.8925 110.489 32.3365 110.489 34.4735ZM114.449 39.3253H116.036V35.6672C116.036 32.5675 117.125 30.9117 118.655 30.9117C119.094 30.9117 119.496 31.0273 119.897 31.239L120.222 29.7566C119.744 29.564 119.286 29.4678 118.865 29.4678C117.641 29.4678 116.647 30.1224 116.036 31.2968V29.6218H114.449V39.3253ZM121.935 39.3253H123.522V29.6218H121.935V39.3253ZM121.572 26.8301C121.572 27.4655 122.088 27.9853 122.719 27.9853C123.388 27.9853 123.885 27.504 123.885 26.8301C123.885 26.1562 123.388 25.6749 122.719 25.6749C122.088 25.6749 121.572 26.1562 121.572 26.8301ZM134.522 34.05C134.522 31.5086 132.878 29.4678 130.221 29.4678C127.487 29.4678 125.824 31.7204 125.824 34.4735C125.824 37.169 127.487 39.4793 130.221 39.4793C132.19 39.4793 133.433 38.6515 134.35 36.7454L133.012 36.1678C132.343 37.4963 131.578 38.0546 130.259 38.0546C128.558 38.0546 127.507 36.7069 127.43 34.7238H134.522V34.05ZM127.526 33.3569C127.851 31.7589 128.902 30.8925 130.221 30.8925C131.751 30.8925 132.687 31.8359 132.917 33.3569H127.526ZM137.253 36.3603C137.253 38.4397 138.305 39.4793 140.044 39.4793C140.675 39.4793 141.23 39.3638 141.688 39.1328L141.287 37.7851C140.981 37.9583 140.618 38.0546 140.178 38.0546C139.28 38.0546 138.84 37.5348 138.84 36.4759V31.0465H141.421V29.6218H138.84V25.6942L137.253 26.7146V29.6218H135.628V31.0465H137.253V36.3603ZM142.926 36.5336C142.926 38.4782 144.168 39.4793 145.908 39.4793C147.246 39.4793 148.24 38.9595 148.909 37.9198L149.196 39.3253H150.439V33.1066C150.439 30.7962 148.986 29.4678 146.826 29.4678C145.927 29.4678 145.143 29.7181 144.474 30.1994C143.824 30.6807 143.442 31.3353 143.308 32.1439L144.723 32.4712C145.067 31.4123 145.774 30.8925 146.826 30.8925C148.049 30.8925 148.871 31.5278 148.871 32.9333V33.3569H147.189C144.532 33.3569 142.926 34.4735 142.926 36.5336ZM148.871 35.0319C148.871 37.1112 147.476 38.0546 146.195 38.0546C145.182 38.0546 144.57 37.4963 144.57 36.5144C144.57 35.3592 145.468 34.7238 147.246 34.7238H148.871V35.0319ZM146.252 28.6014H147.456L146.137 25.7904H143.882L146.252 28.6014ZM74.8767 62.2651H82.8484V60.7056H76.5398V55.8538H81.5102V54.3136H76.5398V50.3475H82.6572V48.788H74.8767V62.2651ZM84.0995 57.4133C84.0995 60.3013 85.648 62.4191 88.3626 62.4191C89.586 62.4191 90.7713 61.7645 91.2492 60.9944V61.572V62.2651H92.8168V48.6339H91.2492V53.1969V53.7745C90.6184 52.9274 89.586 52.4075 88.3626 52.4075C85.648 52.4075 84.0995 54.5254 84.0995 57.4133ZM91.383 57.4133C91.383 59.5696 90.3316 60.9944 88.5729 60.9944C86.8141 60.9944 85.7436 59.5504 85.7436 57.4133C85.7436 55.2762 86.8141 53.8322 88.5729 53.8322C90.3316 53.8322 91.383 55.2762 91.383 57.4133ZM95.6872 62.2651H97.2739V52.5615H95.6872V62.2651ZM95.324 49.7699C95.324 50.4052 95.8401 50.925 96.471 50.925C97.1401 50.925 97.6371 50.4437 97.6371 49.7699C97.6371 49.096 97.1401 48.6147 96.471 48.6147C95.8401 48.6147 95.324 49.096 95.324 49.7699ZM100.149 62.2651H101.735V48.6339H100.149V62.2651ZM104.611 62.2651H106.197V52.5615H104.611V62.2651ZM104.247 49.7699C104.247 50.4052 104.764 50.925 105.394 50.925C106.064 50.925 106.561 50.4437 106.561 49.7699C106.561 49.096 106.064 48.6147 105.394 48.6147C104.764 48.6147 104.247 49.096 104.247 49.7699ZM108.289 62.2651H115.209V60.8403H110.353L114.98 53.3124V52.5615H108.537V53.9863H112.953L108.289 61.572V62.2651ZM117.399 62.2651H118.985V52.5615H117.399V62.2651ZM117.035 49.7699C117.035 50.4052 117.552 50.925 118.182 50.925C118.852 50.925 119.349 50.4437 119.349 49.7699C119.349 49.096 118.852 48.6147 118.182 48.6147C117.552 48.6147 117.035 49.096 117.035 49.7699ZM121.233 59.4734C121.233 61.4179 122.475 62.4191 124.215 62.4191C125.553 62.4191 126.547 61.8993 127.216 60.8596L127.503 62.2651H128.746V56.0463C128.746 53.736 127.293 52.4075 125.132 52.4075C124.234 52.4075 123.45 52.6578 122.781 53.1391C122.131 53.6205 121.749 54.2751 121.615 55.0837L123.03 55.411C123.374 54.3521 124.081 53.8322 125.132 53.8322C126.356 53.8322 127.178 54.4676 127.178 55.8731V56.2966H125.496C122.838 56.2966 121.233 57.4133 121.233 59.4734ZM127.178 57.9716C127.178 60.051 125.782 60.9944 124.502 60.9944C123.488 60.9944 122.877 60.436 122.877 59.4541C122.877 58.2989 123.775 57.6636 125.553 57.6636H127.178V57.9716Z" fill='#59534f'/>
</svg>
