<svg width="181" height="68" viewBox="0 0 181 68" fill="none" xmlns="http://www.w3.org/2000/svg">
<path d="M73.4141 16.7951H75.1726L76.3958 13.1756H81.4802L82.7035 16.7951H84.443L79.7217 3.31805H78.1544L73.4141 16.7951ZM76.8928 11.6161L78.9379 5.57066L80.9832 11.6161H76.8928ZM85.4305 14.3115C85.8126 15.7747 87.0551 16.9492 89.0239 16.9492C90.878 16.9492 92.1012 15.8325 92.1012 14.0035C92.1012 12.7328 91.3177 11.8086 89.75 11.2311C88.1448 10.6342 87.6094 10.2491 87.6094 9.53679C87.6094 8.82441 88.1637 8.36234 88.871 8.36234C89.6165 8.36234 90.2091 8.70888 90.6485 9.38274L91.6808 8.4586C91.0499 7.4382 90.1325 6.93761 88.8899 6.93761C87.2653 6.93761 86.0804 7.99653 86.0804 9.53679C86.0804 10.9423 86.9405 11.7316 88.4695 12.2899C89.8457 12.8098 90.5529 13.2333 90.5529 14.0613C90.5529 14.9854 89.9606 15.5245 89.0239 15.5245C87.8196 15.5245 87.1314 14.8313 86.7493 13.5991L85.4305 14.3115ZM93.5317 14.3115C93.9138 15.7747 95.1563 16.9492 97.1251 16.9492C98.9792 16.9492 100.202 15.8325 100.202 14.0035C100.202 12.7328 99.419 11.8086 97.8513 11.2311C96.246 10.6342 95.7106 10.2491 95.7106 9.53679C95.7106 8.82441 96.2649 8.36234 96.9722 8.36234C97.7177 8.36234 98.3103 8.70888 98.7497 9.38274L99.782 8.4586C99.1511 7.4382 98.2337 6.93761 96.9911 6.93761C95.3665 6.93761 94.1816 7.99653 94.1816 9.53679C94.1816 10.9423 95.0417 11.7316 96.5708 12.2899C97.9469 12.8098 98.6541 13.2333 98.6541 14.0613C98.6541 14.9854 98.0618 15.5245 97.1251 15.5245C95.9208 15.5245 95.2326 14.8313 94.8505 13.5991L93.5317 14.3115ZM101.672 11.9434C101.634 14.5811 103.526 17.0069 106.317 16.9492C109.107 17.0069 110.98 14.5811 110.942 11.9434C110.98 9.30574 109.107 6.87986 106.317 6.93761C103.526 6.87986 101.634 9.30574 101.672 11.9434ZM109.298 11.9434C109.298 13.8302 108.209 15.5245 106.317 15.5245C104.424 15.5245 103.316 13.8302 103.316 11.9434C103.316 10.0566 104.424 8.36234 106.317 8.36234C108.209 8.36234 109.298 10.0566 109.298 11.9434ZM112.703 11.9434C112.703 14.6196 114.271 16.9492 117.119 16.9492C119.088 16.9492 120.464 16.0251 121.152 14.2345L119.738 13.6762C119.202 14.9084 118.399 15.5245 117.119 15.5245C115.303 15.5245 114.347 14.0227 114.347 11.9434C114.347 9.84481 115.303 8.36234 117.119 8.36234C118.362 8.36234 119.241 8.97845 119.738 10.2106L121.152 9.65228C120.483 7.84252 119.126 6.93761 117.119 6.93761C114.271 6.93761 112.703 9.26725 112.703 11.9434ZM123.357 16.7951H124.943V7.09166H123.357V16.7951ZM122.993 4.29994C122.993 4.93532 123.509 5.45514 124.14 5.45514C124.809 5.45514 125.306 4.97381 125.306 4.29994C125.306 3.6261 124.809 3.14478 124.14 3.14478C123.509 3.14478 122.993 3.6261 122.993 4.29994ZM127.189 14.0035C127.189 15.948 128.432 16.9492 130.171 16.9492C131.509 16.9492 132.503 16.4293 133.172 15.3897L133.459 16.7951H134.701V10.5765C134.701 8.26607 133.249 6.93761 131.089 6.93761C130.19 6.93761 129.407 7.18792 128.738 7.66925C128.088 8.15055 127.706 8.80515 127.572 9.6138L128.986 9.94108C129.33 8.88219 130.038 8.36234 131.089 8.36234C132.312 8.36234 133.134 8.99768 133.134 10.4031V10.8267H131.452C128.795 10.8267 127.189 11.9434 127.189 14.0035ZM133.134 12.5017C133.134 14.5811 131.739 15.5245 130.458 15.5245C129.445 15.5245 128.833 14.9661 128.833 13.9842C128.833 12.8291 129.732 12.1937 131.509 12.1937H133.134V12.5017ZM136.572 16.7951H143.492V15.3705H138.637L143.263 7.84252V7.09166H136.821V8.51639H141.237L136.572 16.1021V16.7951ZM145.681 16.7951H147.268V7.09166H145.681V16.7951ZM145.318 4.29994C145.318 4.93532 145.834 5.45514 146.465 5.45514C147.134 5.45514 147.631 4.97381 147.631 4.29994C147.631 3.6261 147.134 3.14478 146.465 3.14478C145.834 3.14478 145.318 3.6261 145.318 4.29994ZM149.569 11.9434C149.531 14.5811 151.424 17.0069 154.214 16.9492C157.005 17.0069 158.878 14.5811 158.84 11.9434C158.878 9.30574 157.005 6.87986 154.214 6.93761C151.424 6.87986 149.531 9.30574 149.569 11.9434ZM157.196 11.9434C157.196 13.8302 156.107 15.5245 154.214 15.5245C152.322 15.5245 151.213 13.8302 151.213 11.9434C151.213 10.0566 152.322 8.36234 154.214 8.36234C156.107 8.36234 157.196 10.0566 157.196 11.9434ZM161.156 16.7951H162.742V12.6557C162.742 10.0181 163.984 8.36234 165.552 8.36234C166.718 8.36234 167.329 9.05546 167.329 10.3839V16.7951H168.897V10.0373C168.897 8.05428 167.75 6.93761 165.934 6.93761C164.634 6.93761 163.43 7.727 162.742 8.95919V7.09166H161.156V16.7951ZM179.901 11.5199C179.901 8.97845 178.257 6.93761 175.6 6.93761C172.867 6.93761 171.204 9.19021 171.204 11.9434C171.204 14.6388 172.867 16.9492 175.6 16.9492C177.569 16.9492 178.812 16.1213 179.729 14.2153L178.391 13.6377C177.722 14.9661 176.957 15.5245 175.639 15.5245C173.937 15.5245 172.886 14.1767 172.81 12.1937H179.901V11.5199ZM172.905 10.8267C173.23 9.22873 174.281 8.36234 175.6 8.36234C177.129 8.36234 178.066 9.30574 178.295 10.8267H172.905ZM74.8668 39.3253H76.5297V33.5301H79.5688C82.0918 33.5301 83.5446 32.0669 83.5446 29.6795C83.5446 27.3114 82.0918 25.8482 79.5688 25.8482H74.8668V39.3253ZM76.5297 31.9706V27.4077H79.5498C81.0978 27.4077 81.8244 28.2741 81.8244 29.6795C81.8244 31.1235 81.0978 31.9706 79.5498 31.9706H76.5297ZM85.4075 39.3253H86.9942V35.6672C86.9942 32.5675 88.0835 30.9117 89.6128 30.9117C90.0522 30.9117 90.4536 31.0273 90.855 31.239L91.1802 29.7565C90.7021 29.564 90.2434 29.4677 89.823 29.4677C88.5998 29.4677 87.6058 30.1223 86.9942 31.2968V29.6217H85.4075V39.3253ZM91.8162 34.4735C91.7779 37.1111 93.6704 39.537 96.4609 39.4793C99.2515 39.537 101.125 37.1111 101.087 34.4735C101.125 31.8359 99.2515 29.41 96.4609 29.4677C93.6704 29.41 91.7779 31.8359 91.8162 34.4735ZM99.4427 34.4735C99.4427 36.3603 98.3534 38.0546 96.4609 38.0546C94.5684 38.0546 93.4598 36.3603 93.4598 34.4735C93.4598 32.5867 94.5684 30.8925 96.4609 30.8925C98.3534 30.8925 99.4427 32.5867 99.4427 34.4735ZM103.402 43.2528H104.988V38.6898V38.1123C105.543 38.9401 106.709 39.4793 107.798 39.4793C110.57 39.4793 112.118 37.3614 112.118 34.4735C112.118 31.5856 110.57 29.4677 107.798 29.4677C106.575 29.4677 105.447 30.1223 104.988 30.8732V30.2956V29.6217H103.402V43.2528ZM110.474 34.4735C110.474 36.6106 109.404 38.0546 107.645 38.0546C105.906 38.0546 104.835 36.6106 104.835 34.4735C104.835 32.3365 105.887 30.8925 107.645 30.8925C109.404 30.8925 110.474 32.3365 110.474 34.4735ZM114.434 39.3253H116.02V35.6672C116.02 32.5675 117.11 30.9117 118.639 30.9117C119.079 30.9117 119.48 31.0273 119.881 31.239L120.206 29.7565C119.728 29.564 119.269 29.4677 118.849 29.4677C117.626 29.4677 116.632 30.1223 116.02 31.2968V29.6217H114.434V39.3253ZM121.919 39.3253H123.506V29.6217H121.919V39.3253ZM121.556 26.8301C121.556 27.4654 122.072 27.9853 122.703 27.9853C123.372 27.9853 123.869 27.5039 123.869 26.8301C123.869 26.1562 123.372 25.6749 122.703 25.6749C122.072 25.6749 121.556 26.1562 121.556 26.8301ZM134.504 34.0499C134.504 31.5085 132.861 29.4677 130.204 29.4677C127.47 29.4677 125.807 31.7203 125.807 34.4735C125.807 37.1688 127.47 39.4793 130.204 39.4793C132.173 39.4793 133.415 38.6516 134.333 36.7454L132.994 36.1678C132.326 37.4963 131.561 38.0546 130.242 38.0546C128.541 38.0546 127.49 36.7069 127.413 34.7238H134.504V34.0499ZM127.509 33.3569C127.834 31.7589 128.885 30.8925 130.204 30.8925C131.733 30.8925 132.67 31.8359 132.899 33.3569H127.509ZM137.235 36.3603C137.235 38.4395 138.286 39.4793 140.026 39.4793C140.656 39.4793 141.211 39.3639 141.67 39.1327L141.268 37.7852C140.962 37.9583 140.599 38.0546 140.16 38.0546C139.261 38.0546 138.821 37.5349 138.821 36.4759V31.0465H141.402V29.6217H138.821V25.6941L137.235 26.7145V29.6217H135.61V31.0465H137.235V36.3603ZM142.907 36.5336C142.907 38.4781 144.149 39.4793 145.889 39.4793C147.226 39.4793 148.22 38.9596 148.89 37.9197L149.176 39.3253H150.419V33.1065C150.419 30.7962 148.966 29.4677 146.806 29.4677C145.907 29.4677 145.124 29.718 144.455 30.1993C143.805 30.6807 143.423 31.3353 143.289 32.1439L144.703 32.4712C145.047 31.4123 145.755 30.8925 146.806 30.8925C148.029 30.8925 148.851 31.5278 148.851 32.9333V33.3569H147.169C144.512 33.3569 142.907 34.4735 142.907 36.5336ZM148.851 35.0319C148.851 37.1111 147.456 38.0546 146.175 38.0546C145.162 38.0546 144.55 37.4963 144.55 36.5143C144.55 35.3591 145.449 34.7238 147.227 34.7238H148.851V35.0319ZM146.233 28.6013H147.437L146.118 25.7904H143.862L146.233 28.6013ZM74.8668 62.2652H82.8374V60.7056H76.5297V55.8537H81.4992V54.3136H76.5297V50.3476H82.6462V48.788H74.8668V62.2652ZM84.0883 57.4133C84.0883 60.3013 85.6367 62.4192 88.3509 62.4192C89.5742 62.4192 90.759 61.7646 91.2371 60.9945V61.572V62.2652H92.8044V48.634H91.2371V53.1969V53.7744C90.6061 52.9271 89.5742 52.4074 88.3509 52.4074C85.6367 52.4074 84.0883 54.5253 84.0883 57.4133ZM91.371 57.4133C91.371 59.5695 90.3197 60.9945 88.5611 60.9945C86.8026 60.9945 85.7323 59.5503 85.7323 57.4133C85.7323 55.2763 86.8026 53.8321 88.5611 53.8321C90.3197 53.8321 91.371 55.2763 91.371 57.4133ZM95.6745 62.2652H97.2608V52.5614H95.6745V62.2652ZM95.3111 49.7697C95.3111 50.4053 95.8274 50.925 96.458 50.925C97.1273 50.925 97.6239 50.4439 97.6239 49.7697C97.6239 49.096 97.1273 48.6145 96.458 48.6145C95.8274 48.6145 95.3111 49.096 95.3111 49.7697ZM100.135 62.2652H101.722V48.634H100.135V62.2652ZM104.597 62.2652H106.183V52.5614H104.597V62.2652ZM104.234 49.7697C104.234 50.4053 104.75 50.925 105.38 50.925C106.05 50.925 106.546 50.4439 106.546 49.7697C106.546 49.096 106.05 48.6145 105.38 48.6145C104.75 48.6145 104.234 49.096 104.234 49.7697ZM108.274 62.2652H115.194V60.8401H110.339L114.965 53.3124V52.5614H108.523V53.9861H112.938L108.274 61.572V62.2652ZM117.383 62.2652H118.97V52.5614H117.383V62.2652ZM117.02 49.7697C117.02 50.4053 117.536 50.925 118.167 50.925C118.836 50.925 119.333 50.4439 119.333 49.7697C119.333 49.096 118.836 48.6145 118.167 48.6145C117.536 48.6145 117.02 49.096 117.02 49.7697ZM121.216 59.4735C121.216 61.418 122.459 62.4192 124.198 62.4192C125.536 62.4192 126.53 61.8991 127.199 60.8596L127.486 62.2652H128.728V56.0463C128.728 53.7358 127.276 52.4074 125.116 52.4074C124.217 52.4074 123.434 52.6577 122.765 53.1392C122.115 53.6204 121.732 54.275 121.599 55.0837L123.013 55.4108C123.357 54.3522 124.065 53.8321 125.116 53.8321C126.339 53.8321 127.161 54.4676 127.161 55.8732V56.2966H125.479C122.822 56.2966 121.216 57.4133 121.216 59.4735ZM127.161 57.9716C127.161 60.051 125.766 60.9945 124.485 60.9945C123.472 60.9945 122.86 60.4362 122.86 59.454C122.86 58.2988 123.759 57.6636 125.536 57.6636H127.161V57.9716Z" fill="#59534f"/>
<path d="M7.44954 29.7806H27.7904L30.5868 36.118H35.2344L20.5869 3.30811H14.351L0 36.1237H4.70352L7.44395 29.7863L7.44954 29.7806ZM17.5277 6.31032L25.8385 25.3281H9.33431L17.5277 6.31032Z" fill="#59534f"/>
<path d="M61.6378 40.1586V58.172H35.2343V40.1586H30.8161V58.172H4.41826V40.1586H0V58.172V62.4045H4.41826H30.8161H35.2343H61.6378H66.0449H66.0504V40.1586H61.6378Z" fill="#59534f"/>
<path d="M37.3263 27.0832C38.9761 27.9974 39.2389 27.9974 45.3516 28.1215H61.9566V36.1237H65.9444V3.30811H61.9566L55.6088 3.31939L44.7703 3.30811C40.2008 3.30811 38.9258 3.48869 37.3318 4.2844C34.4068 5.75162 33.0254 9.41976 33.0254 15.8982C33.0254 22.0099 34.3565 25.4297 37.3318 27.0832H37.3263ZM39.1885 7.95251C40.2512 7.40512 40.6763 7.34304 44.8765 7.28096H49.1603L61.9566 7.2979V24.0866L51.1794 24.1487H46.1461C38.2824 24.1487 37.0074 23.0482 37.0074 16.1409C37.0074 10.8249 37.5387 8.8103 39.183 7.95251H39.1885Z" fill="#59534f"/>
</svg>
