<svg
    width="228"
    height="81"
    viewBox="0 0 228 81"
    fill="none"
    xmlns="http://www.w3.org/2000/svg"
>
    <path
    d="M85.8588 20H87.3548L88.8948 15.622H95.2308L96.7708 20H98.2668L92.7008 4.6H91.4248L85.8588 20ZM89.3568 14.258L92.0628 6.58L94.7688 14.258H89.3568ZM99.4975 17.14C99.9155 18.834 101.235 20.176 103.501 20.176C105.613 20.176 106.933 18.944 106.933 16.92C106.933 15.336 105.811 14.324 104.227 13.73C102.357 13.048 101.675 12.564 101.675 11.596C101.675 10.628 102.357 10.012 103.303 10.012C104.205 10.012 104.887 10.386 105.481 11.288L106.449 10.452C105.745 9.286 104.777 8.736 103.369 8.736C101.587 8.736 100.267 9.88 100.267 11.64C100.267 13.29 101.235 14.104 103.061 14.742C104.711 15.336 105.503 15.864 105.503 16.942C105.503 18.152 104.755 18.9 103.501 18.9C101.983 18.9 101.169 18.02 100.707 16.502L99.4975 17.14ZM108.736 17.14C109.154 18.834 110.474 20.176 112.74 20.176C114.852 20.176 116.172 18.944 116.172 16.92C116.172 15.336 115.05 14.324 113.466 13.73C111.596 13.048 110.914 12.564 110.914 11.596C110.914 10.628 111.596 10.012 112.542 10.012C113.444 10.012 114.126 10.386 114.72 11.288L115.688 10.452C114.984 9.286 114.016 8.736 112.608 8.736C110.826 8.736 109.506 9.88 109.506 11.64C109.506 13.29 110.474 14.104 112.3 14.742C113.95 15.336 114.742 15.864 114.742 16.942C114.742 18.152 113.994 18.9 112.74 18.9C111.222 18.9 110.408 18.02 109.946 16.502L108.736 17.14ZM117.997 14.456C117.997 17.426 120.043 20.176 123.189 20.176C126.335 20.176 128.381 17.426 128.381 14.456C128.381 11.486 126.335 8.736 123.189 8.736C120.043 8.736 117.997 11.486 117.997 14.456ZM126.951 14.456C126.951 16.766 125.587 18.9 123.189 18.9C120.791 18.9 119.427 16.766 119.427 14.456C119.427 12.146 120.791 10.012 123.189 10.012C125.587 10.012 126.951 12.146 126.951 14.456ZM130.5 14.456C130.5 17.448 132.238 20.176 135.406 20.176C137.584 20.176 139.102 19.12 139.872 17.118L138.64 16.634C138.024 18.13 137.012 18.9 135.406 18.9C134.284 18.9 133.404 18.482 132.81 17.646C132.216 16.788 131.93 15.732 131.93 14.456C131.93 13.18 132.216 12.124 132.81 11.288C133.404 10.43 134.284 10.012 135.406 10.012C136.968 10.012 138.046 10.76 138.64 12.278L139.872 11.794C139.102 9.748 137.628 8.736 135.406 8.736C132.238 8.736 130.5 11.464 130.5 14.456ZM142.504 20H143.868V8.912H142.504V20ZM142.064 5.722C142.064 6.36 142.548 6.844 143.186 6.844C143.824 6.844 144.308 6.36 144.308 5.722C144.308 5.084 143.824 4.6 143.186 4.6C142.548 4.6 142.064 5.084 142.064 5.722ZM146.572 16.81C146.572 19.098 148.002 20.176 150.026 20.176C151.698 20.176 152.842 19.428 153.524 18.284L153.854 20H154.888V12.652C154.888 11.442 154.514 10.474 153.766 9.792C153.04 9.088 152.094 8.736 150.972 8.736C148.948 8.736 147.298 9.924 147.012 11.772L148.332 12.08C148.684 10.848 149.542 10.012 150.972 10.012C152.556 10.012 153.524 10.848 153.524 12.696V13.18H151.61C148.442 13.18 146.572 14.412 146.572 16.81ZM153.524 14.874C153.524 17.734 151.72 18.9 150.158 18.9C148.816 18.9 148.002 18.152 148.002 16.81C148.002 15.314 149.19 14.456 151.654 14.456H153.524V14.874ZM157.135 20H164.835V18.724H159.005L164.593 9.66V8.912H157.399V10.188H162.789L157.135 19.34V20ZM167.469 20H168.833V8.912H167.469V20ZM167.029 5.722C167.029 6.36 167.513 6.844 168.151 6.844C168.789 6.844 169.273 6.36 169.273 5.722C169.273 5.084 168.789 4.6 168.151 4.6C167.513 4.6 167.029 5.084 167.029 5.722ZM171.6 14.456C171.6 17.426 173.646 20.176 176.792 20.176C179.938 20.176 181.984 17.426 181.984 14.456C181.984 11.486 179.938 8.736 176.792 8.736C173.646 8.736 171.6 11.486 171.6 14.456ZM180.554 14.456C180.554 16.766 179.19 18.9 176.792 18.9C174.394 18.9 173.03 16.766 173.03 14.456C173.03 12.146 174.394 10.012 176.792 10.012C179.19 10.012 180.554 12.146 180.554 14.456ZM184.764 20H186.128V15.138C186.128 12.036 187.69 10.012 189.714 10.012C191.232 10.012 191.98 10.914 191.98 12.564V20H193.344V12.388C193.344 10.078 192.046 8.736 189.934 8.736C188.35 8.736 186.898 9.726 186.128 11.222V8.912H184.764V20ZM205.904 13.84C205.904 10.804 203.88 8.736 201.042 8.736C198.116 8.736 196.114 11.156 196.114 14.456C196.114 17.69 198.16 20.176 201.042 20.176C203.154 20.176 204.54 19.318 205.662 17.118L204.452 16.524C203.638 18.218 202.714 18.9 201.042 18.9C199.92 18.9 199.062 18.482 198.446 17.624C197.83 16.766 197.522 15.71 197.522 14.456H205.904V13.84ZM197.632 13.18C198.05 11.134 199.392 10.012 201.042 10.012C203 10.012 204.232 11.222 204.496 13.18H197.632ZM87.5748 47H89.0268V40.092H92.8108C95.5608 40.092 97.2548 38.486 97.2548 35.846C97.2548 33.206 95.5608 31.6 92.8108 31.6H87.5748V47ZM89.0268 38.728V32.964H92.8328C94.8348 32.964 95.7368 34.086 95.7368 35.846C95.7368 37.606 94.8348 38.728 92.8328 38.728H89.0268ZM99.5569 47H100.921V42.71C100.921 39.014 102.263 37.012 103.979 37.012C104.529 37.012 105.057 37.144 105.541 37.408L105.849 36.11C105.233 35.846 104.771 35.736 104.177 35.736C102.703 35.736 101.603 36.506 100.921 37.892V35.912H99.5569V47ZM106.61 41.456C106.61 44.426 108.656 47.176 111.802 47.176C114.948 47.176 116.994 44.426 116.994 41.456C116.994 38.486 114.948 35.736 111.802 35.736C108.656 35.736 106.61 38.486 106.61 41.456ZM115.564 41.456C115.564 43.766 114.2 45.9 111.802 45.9C109.404 45.9 108.04 43.766 108.04 41.456C108.04 39.146 109.404 37.012 111.802 37.012C114.2 37.012 115.564 39.146 115.564 41.456ZM119.774 51.488H121.138V46.098V45.438C121.864 46.516 123.294 47.176 124.636 47.176C127.804 47.176 129.586 44.668 129.586 41.456C129.586 38.244 127.804 35.736 124.636 35.736C123.206 35.736 121.754 36.528 121.138 37.496V36.836V35.912H119.774V51.488ZM128.156 41.456C128.156 42.754 127.848 43.81 127.21 44.646C126.572 45.482 125.692 45.9 124.57 45.9C123.448 45.9 122.568 45.482 121.93 44.646C121.314 43.81 121.006 42.754 121.006 41.456C121.006 38.838 122.282 37.012 124.57 37.012C126.858 37.012 128.156 38.838 128.156 41.456ZM132.364 47H133.728V42.71C133.728 39.014 135.07 37.012 136.786 37.012C137.336 37.012 137.864 37.144 138.348 37.408L138.656 36.11C138.04 35.846 137.578 35.736 136.984 35.736C135.51 35.736 134.41 36.506 133.728 37.892V35.912H132.364V47ZM140.721 47H142.085V35.912H140.721V47ZM140.281 32.722C140.281 33.36 140.765 33.844 141.403 33.844C142.041 33.844 142.525 33.36 142.525 32.722C142.525 32.084 142.041 31.6 141.403 31.6C140.765 31.6 140.281 32.084 140.281 32.722ZM154.642 40.84C154.642 37.804 152.618 35.736 149.78 35.736C146.854 35.736 144.852 38.156 144.852 41.456C144.852 44.69 146.898 47.176 149.78 47.176C151.892 47.176 153.278 46.318 154.4 44.118L153.19 43.524C152.376 45.218 151.452 45.9 149.78 45.9C148.658 45.9 147.8 45.482 147.184 44.624C146.568 43.766 146.26 42.71 146.26 41.456H154.642V40.84ZM146.37 40.18C146.788 38.134 148.13 37.012 149.78 37.012C151.738 37.012 152.97 38.222 153.234 40.18H146.37ZM157.92 43.854C157.92 46.076 158.998 47.176 160.692 47.176C161.506 47.176 162.144 47.044 162.628 46.78L162.254 45.548C161.88 45.79 161.418 45.9 160.868 45.9C159.9 45.9 159.284 45.284 159.284 44.074V37.188H162.276V35.912H159.284V31.424L157.92 32.326V35.912H155.962V37.188H157.92V43.854ZM164.21 43.81C164.21 46.098 165.64 47.176 167.664 47.176C169.336 47.176 170.48 46.428 171.162 45.284L171.492 47H172.526V39.652C172.526 38.442 172.152 37.474 171.404 36.792C170.678 36.088 169.732 35.736 168.61 35.736C166.586 35.736 164.936 36.924 164.65 38.772L165.97 39.08C166.322 37.848 167.18 37.012 168.61 37.012C170.194 37.012 171.162 37.848 171.162 39.696V40.18H169.248C166.08 40.18 164.21 41.412 164.21 43.81ZM171.162 41.874C171.162 44.734 169.358 45.9 167.796 45.9C166.454 45.9 165.64 45.152 165.64 43.81C165.64 42.314 166.828 41.456 169.292 41.456H171.162V41.874ZM168.06 34.68H169.16L167.62 31.6H165.574L168.06 34.68ZM87.5748 74H96.4848V72.636H89.0268V66.476H94.9448V65.112H89.0268V59.964H96.2648V58.6H87.5748V74ZM98.0161 68.456C98.0161 71.668 99.7981 74.176 102.966 74.176C104.352 74.176 105.782 73.384 106.464 72.416V73.076V74H107.828V58.424H106.464V63.814V64.474C105.672 63.352 104.44 62.736 102.966 62.736C99.7981 62.736 98.0161 65.244 98.0161 68.456ZM106.596 68.456C106.596 71.074 105.32 72.9 103.032 72.9C100.744 72.9 99.4461 71.074 99.4461 68.456C99.4461 67.158 99.7541 66.102 100.392 65.266C101.03 64.43 101.91 64.012 103.032 64.012C104.154 64.012 105.034 64.43 105.65 65.266C106.288 66.102 106.596 67.158 106.596 68.456ZM111.266 74H112.63V62.912H111.266V74ZM110.826 59.722C110.826 60.36 111.31 60.844 111.948 60.844C112.586 60.844 113.07 60.36 113.07 59.722C113.07 59.084 112.586 58.6 111.948 58.6C111.31 58.6 110.826 59.084 110.826 59.722ZM116.057 74H117.421V58.424H116.057V74ZM120.848 74H122.212V62.912H120.848V74ZM120.408 59.722C120.408 60.36 120.892 60.844 121.53 60.844C122.168 60.844 122.652 60.36 122.652 59.722C122.652 59.084 122.168 58.6 121.53 58.6C120.892 58.6 120.408 59.084 120.408 59.722ZM124.715 74H132.415V72.724H126.585L132.173 63.66V62.912H124.979V64.188H130.369L124.715 73.34V74ZM135.049 74H136.413V62.912H135.049V74ZM134.609 59.722C134.609 60.36 135.093 60.844 135.731 60.844C136.369 60.844 136.853 60.36 136.853 59.722C136.853 59.084 136.369 58.6 135.731 58.6C135.093 58.6 134.609 59.084 134.609 59.722ZM139.117 70.81C139.117 73.098 140.547 74.176 142.571 74.176C144.243 74.176 145.387 73.428 146.069 72.284L146.399 74H147.433V66.652C147.433 65.442 147.059 64.474 146.311 63.792C145.585 63.088 144.639 62.736 143.517 62.736C141.493 62.736 139.843 63.924 139.557 65.772L140.877 66.08C141.229 64.848 142.087 64.012 143.517 64.012C145.101 64.012 146.069 64.848 146.069 66.696V67.18H144.155C140.987 67.18 139.117 68.412 139.117 70.81ZM146.069 68.874C146.069 71.734 144.265 72.9 142.703 72.9C141.361 72.9 140.547 72.152 140.547 70.81C140.547 69.314 141.735 68.456 144.199 68.456H146.069V68.874Z"
    fill='#59534f'
    />
    <path
    d="M70.2939 39.4185V31.2405M70.2939 31.2405V5.6842H42.7202C34.1835 5.6842 34.1835 31.2405 42.7202 31.2405H70.2939Z"
    stroke='#59534f'
    stroke-width="2.5"
    />
    <path
    d="M2 39.7592L19.0735 5.6842L36.1469 39.7592"
    stroke='#59534f'
    stroke-width="2.5"
    />
    <path d="M2 48.278V73.8343H70.2939" stroke='#59534f' stroke-width="2.5" />
    <path d="M6.26837 31.2405H31.8786" stroke='#59534f' stroke-width="2.5" />
    <path
    d="M36.1469 73.8343L36.1469 56.6264"
    stroke='#59534f'
    stroke-width="2.5"
    />
    <path
    d="M70.2939 75.3158L70.2939 48.6483"
    stroke='#59534f'
    stroke-width="2.5"
    />
</svg>